<?xml version="1.0" standalone="no"?>
<!DOCTYPE svg PUBLIC "-//W3C//DTD SVG 20010904//EN"
 "http://www.w3.org/TR/2001/REC-SVG-20010904/DTD/svg10.dtd">
<svg version="1.0" xmlns="http://www.w3.org/2000/svg"
 width="724.000000pt" height="724.000000pt" viewBox="0 0 724.000000 724.000000"
 preserveAspectRatio="xMidYMid meet">

<g transform="translate(0.000000,724.000000) scale(0.100000,-0.100000)"
fill="#000000" stroke="none">
<path d="M4225 5903 c-578 -55 -1042 -271 -1423 -663 -237 -242 -427 -556
-532 -877 -30 -93 -32 -107 -21 -142 29 -100 157 -145 245 -88 13 9 64 69 112
134 199 267 393 429 692 579 123 61 336 148 474 193 83 28 163 84 353 251 188
165 288 241 378 286 121 62 227 55 227 -13 0 -15 -27 -171 -61 -347 -33 -175
-56 -322 -52 -326 4 -4 51 -17 103 -29 52 -13 99 -25 103 -28 5 -3 -3 -17 -17
-32 -55 -58 -69 -150 -42 -279 57 -263 305 -461 579 -462 76 0 121 15 160 54
31 31 31 31 66 -74 67 -195 94 -404 80 -618 -10 -151 -26 -222 -63 -287 -29
-49 -37 -53 -57 -29 -36 44 -150 76 -228 63 -93 -14 -184 -86 -213 -166 -7
-18 -16 -33 -22 -33 -22 0 -109 66 -164 124 -91 97 -142 230 -128 330 8 54 -3
69 -52 68 -85 -1 -151 -52 -204 -156 -62 -122 -70 -195 -38 -341 26 -118 60
-184 121 -239 65 -59 124 -80 327 -116 238 -43 324 -69 471 -145 113 -59 179
-108 237 -178 62 -76 130 -110 223 -111 125 -1 192 50 349 261 195 265 322
561 383 898 26 138 36 437 20 588 -34 334 -159 680 -348 962 -354 528 -916
880 -1549 971 -104 15 -404 25 -489 17z m972 -1409 c46 -35 65 -66 70 -118 7
-61 -28 -126 -68 -126 -38 0 -52 28 -33 64 20 41 18 82 -8 106 -26 24 -76 26
-104 5 -27 -21 -61 -18 -74 5 -16 29 3 58 53 81 54 25 117 19 164 -17z"/>
<path d="M3334 4595 c9 -267 103 -510 297 -769 94 -124 222 -254 338 -342 85
-64 317 -187 376 -199 17 -4 -16 16 -73 44 -176 86 -323 201 -468 366 -108
122 -180 233 -263 405 -83 173 -120 274 -172 475 l-39 150 4 -130z"/>
<path d="M1922 3745 c-65 -20 -111 -61 -141 -124 -24 -53 -26 -67 -31 -246
l-5 -190 -50 0 c-49 0 -50 -1 -53 -31 -5 -54 22 -103 68 -121 l40 -16 0 -259
0 -258 83 0 82 0 0 257 0 258 82 3 c93 3 91 0 85 114 l-4 57 -81 3 -82 3 -2
120 c-3 149 9 230 38 261 29 31 72 39 109 21 16 -9 32 -12 34 -9 2 4 17 33 35
64 l31 57 -22 15 c-27 18 -101 36 -143 35 -16 0 -49 -6 -73 -14z"/>
<path d="M2970 3455 c0 -288 -1 -307 -17 -302 -10 3 -45 17 -78 31 -78 33
-179 35 -259 5 -77 -28 -147 -106 -176 -195 -19 -56 -22 -82 -18 -168 4 -90 8
-109 38 -169 57 -117 139 -171 260 -171 88 -1 135 13 196 60 24 19 46 34 49
34 3 0 5 -18 5 -40 l0 -40 80 0 80 0 0 574 0 573 -22 33 c-29 43 -65 68 -105
76 l-33 7 0 -308z m-128 -397 c45 -13 94 -59 114 -105 22 -50 18 -159 -7 -211
-33 -66 -86 -97 -170 -97 -78 0 -105 15 -154 84 -23 33 -30 55 -33 105 -7 106
32 180 113 217 47 22 83 24 137 7z"/>
<path d="M5142 3631 c-8 -4 -12 -19 -10 -32 2 -19 9 -24 33 -24 24 0 31 5 33
24 4 23 -11 41 -33 41 -5 0 -16 -4 -23 -9z"/>
<path d="M5302 3594 c-26 -18 -30 -65 -6 -88 38 -38 112 1 99 52 -12 48 -53
64 -93 36z"/>
<path d="M2209 3491 c-21 -22 -29 -39 -29 -66 0 -45 45 -95 85 -95 63 0 115
59 101 116 -19 74 -103 98 -157 45z"/>
<path d="M5223 3453 c-19 -7 -16 -31 6 -42 26 -14 50 12 31 34 -13 16 -17 17
-37 8z"/>
<path d="M3412 3189 c-68 -26 -145 -102 -180 -176 -24 -52 -27 -69 -27 -168 0
-98 3 -116 26 -165 37 -79 78 -121 155 -161 63 -31 75 -34 158 -34 78 0 99 4
150 28 70 33 130 93 165 167 23 49 26 67 26 170 0 106 -2 120 -28 172 -35 71
-116 147 -183 171 -69 24 -193 22 -262 -4z m215 -149 c18 -10 45 -38 60 -61
36 -54 44 -157 19 -224 -46 -119 -175 -159 -264 -81 -49 43 -72 98 -72 175 0
124 72 211 174 211 33 0 62 -7 83 -20z"/>
<path d="M2263 3159 c-18 -11 -41 -35 -52 -53 -19 -30 -20 -51 -21 -317 l-1
-284 80 -3 81 -3 0 341 0 340 -27 0 c-16 0 -42 -10 -60 -21z"/>
<path d="M3816 2345 c-22 -22 -9 -45 25 -45 24 0 29 4 29 24 0 13 -7 27 -16
30 -21 8 -20 8 -38 -9z"/>
<path d="M1820 2270 l0 -80 -45 0 c-38 0 -45 -3 -45 -20 0 -17 7 -20 45 -20
l45 0 0 -160 0 -160 25 0 25 0 0 160 0 160 60 0 c53 0 60 2 60 20 0 18 -7 20
-60 20 l-60 0 0 80 c0 79 0 80 -25 80 -25 0 -25 -1 -25 -80z"/>
<path d="M995 2200 c-45 -7 -95 -31 -114 -54 -21 -25 -31 -19 -31 20 0 31 -3
35 -22 32 l-23 -3 0 -270 0 -270 22 -3 c30 -4 35 21 31 142 -2 53 -2 96 -1 96
1 0 19 -11 39 -25 152 -103 361 -1 341 166 -14 116 -120 190 -242 169z m104
-55 c75 -39 105 -115 73 -187 -38 -86 -145 -121 -232 -76 -145 75 -89 278 77
278 30 0 67 -7 82 -15z"/>
<path d="M1460 2201 c-145 -30 -213 -176 -136 -292 49 -73 150 -104 248 -75
65 19 86 37 63 56 -11 9 -19 9 -28 2 -27 -22 -102 -34 -145 -23 -39 11 -102
54 -102 71 0 6 112 49 298 113 20 7 32 18 32 29 0 22 -54 85 -89 102 -35 18
-98 26 -141 17z m122 -57 c25 -13 55 -51 46 -59 -8 -7 -262 -95 -276 -95 -11
0 -13 9 -9 40 15 112 133 168 239 114z"/>
<path d="M2775 2201 c-142 -35 -206 -178 -131 -292 48 -72 151 -103 249 -75
64 19 85 37 62 56 -11 9 -19 9 -28 2 -7 -6 -33 -16 -58 -22 -59 -15 -118 0
-162 40 -40 37 -40 37 123 91 69 23 140 48 158 56 32 13 32 14 18 42 -19 36
-80 89 -109 95 -53 11 -94 13 -122 7z m127 -57 c25 -13 55 -51 46 -59 -2 -1
-50 -19 -108 -39 -58 -20 -115 -41 -128 -46 -13 -6 -29 -10 -37 -10 -32 0 -7
97 35 135 47 43 129 51 192 19z"/>
<path d="M4508 2200 c-85 -15 -158 -99 -158 -182 0 -65 19 -108 65 -146 67
-55 167 -65 250 -25 38 18 39 21 25 43 -8 13 -12 13 -37 -1 -43 -25 -87 -31
-133 -19 -48 13 -110 64 -95 78 6 5 81 33 168 63 86 30 157 58 157 64 0 21
-50 83 -82 103 -37 22 -105 31 -160 22z m122 -50 c19 -10 65 -59 59 -63 -2 -2
-69 -27 -148 -55 l-143 -50 4 50 c9 85 89 144 178 131 19 -3 42 -9 50 -13z"/>
<path d="M2348 2183 c-51 -32 -63 -99 -25 -137 13 -13 53 -33 90 -45 80 -27
107 -56 89 -97 -22 -46 -92 -57 -156 -24 -41 20 -56 19 -56 -5 0 -18 47 -43
97 -51 84 -13 158 30 170 99 5 31 1 40 -24 65 -16 17 -55 38 -86 48 -64 20
-97 45 -97 74 0 45 100 68 149 34 19 -14 25 -14 32 -3 14 23 11 29 -26 45 -46
19 -123 18 -157 -3z"/>
<path d="M3107 2193 c-4 -3 -7 -87 -7 -185 l0 -178 25 0 25 0 0 116 c0 101 3
120 21 145 24 34 60 54 110 64 26 5 35 11 35 27 0 18 -5 19 -40 15 -22 -3 -59
-19 -83 -36 -45 -32 -58 -38 -49 -22 8 12 -11 61 -22 61 -5 0 -12 -3 -15 -7z"/>
<path d="M3340 2193 c0 -12 195 -373 201 -373 12 0 200 360 194 369 -5 8 -46
7 -49 -1 -21 -51 -138 -278 -143 -277 -5 0 -39 63 -78 140 -38 76 -74 139 -80
140 -5 0 -18 2 -27 4 -10 2 -18 1 -18 -2z"/>
<path d="M3816 2192 c-3 -3 -6 -86 -6 -184 l0 -178 25 0 25 0 -2 182 c-3 161
-5 181 -20 184 -9 1 -19 -1 -22 -4z"/>
<path d="M4085 2187 c-75 -30 -113 -72 -126 -141 -27 -140 121 -258 271 -216
51 14 78 36 64 50 -9 9 -24 7 -60 -5 -119 -40 -224 26 -224 142 0 57 27 101
81 128 36 19 110 19 155 0 38 -16 54 -13 54 10 0 36 -148 58 -215 32z"/>
</g>
</svg>
